<?xml version="1.0" encoding="utf-8"?>

<svg width="20px" height="20px" version="1.1" id="Layer_1" xmlns="http://www.w3.org/2000/svg" xmlns:xlink="http://www.w3.org/1999/xlink" x="0px" y="0px"
	 viewBox="0 0 1080 1080" style="enable-background:new 0 0 1080 1080;" xml:space="preserve">
<style type="text/css">
	.st0{fill:#25292E;}
</style>
<g>
	<g>
		<path class="st0" d="M73.37,563.7c-2.61-24.41-3.02-48.87-1.28-73.37c4.83-67.84,24.56-131.03,59.17-189.55
			c24.9-42.11,56.2-78.86,93.8-110.16c50.89-42.35,108.54-71.48,172.76-87.56C442.38,91.91,487.6,88.42,533.34,92
			c75.06,5.87,143.91,30.02,206.3,71.98c68.8,46.27,119.93,107.61,153.34,183.53c29.37,66.74,40.64,136.54,34.76,209.18
			c-0.3,3.67-1.25,4.86-5.15,4.86c-159.59-0.11-319.17-0.08-478.76-0.17c-3.37,0-5.69,0.97-8.02,3.38
			C388.59,613.8,341.33,662.8,294,711.75c-56.67,58.61-113.42,117.14-170.12,175.73C92.32,920.1,60.8,952.76,29.27,985.4
			c-0.82,0.85-1.6,1.74-2.93,3.18c0-2.09,0-3.44,0-4.79c0-88.54,0.02-177.08-0.07-265.62c0-3.05,0.89-5.17,2.99-7.35
			c71.86-74.71,143.66-149.48,215.47-224.24c32.12-33.44,64.27-66.85,96.34-100.33c2.18-2.28,4.34-3.3,7.61-3.29
			c118.39,0.1,236.79,0.08,355.18,0.08c0.78,0,1.55,0,3.26,0c-4.48-5.84-8.44-11-12.41-16.16c-12.65-16.42-25.36-32.79-37.91-49.29
			c-1.79-2.36-3.63-3.27-6.61-3.26c-109.71,0.08-219.41,0.09-329.12-0.02c-3.71,0-6.19,1.16-8.69,3.75
			c-56.28,58.21-112.63,116.36-168.96,174.51c-22.42,23.14-44.83,46.29-67.22,69.45c-0.65,0.68-1.07,1.59-1.59,2.39
			C74.18,564.18,73.78,563.94,73.37,563.7z"/>
		<path class="st0" d="M244.44,864.34c10.51-11,20.74-21.72,30.99-32.42c60.87-63.5,121.92-126.84,182.41-190.7
			c8.19-8.65,16.16-11.96,28.07-11.93c187.59,0.41,375.18,0.28,562.77,0.28c1.38,0,2.76,0,4.42,0c0,26.1,0,51.92,0,78.04
			c-1.78,0-3.3,0-4.81,0c-52.68,0-105.35,0.03-158.03-0.07c-3.03-0.01-4.68,0.76-6.12,3.59
			c-50.71,99.49-128.05,169.73-232.25,209.91c-62.62,24.15-127.6,32.41-194.4,25.69c-76.69-7.72-146.22-34.44-208.89-79.21
			C247.28,866.57,246,865.54,244.44,864.34z"/>
	</g>
</g>
</svg>
